# xmcd
#
# Track frame offsets:
#	182
#	18047
#	40267
#	53087
#	68537
#	84070
#	101672
#	118925
#	136142
#	151182
#	170085
#	185677
#	204285
#	216425
#	233427
#
# Disc length: 3397
#
# Revision: 3
# Processed by: cddbd v1.5.1PL0 Copyright (c) Steve Scherf et al.
# Submitted via: audiograbber 1.83.01
# Normalized: r2:DSETVAR1
#
DISCID=bc0d430f
DTITLE=Various Artist - Soul Classics 1974 - (Volume 15)
DYEAR=2000
DGENRE=Soul
TTITLE0=Dionne Warwicke and Spinners - Then Came You
TTITLE1=The Spinners - Mighty Love
TTITLE2=Aretha Franklin - I'm In Love
TTITLE3=Eddie Floyd - Soul Street
TTITLE4=The Staple Singers - Touch A Hand, Make A Friend
TTITLE5=Shirley Brown - Woman To Woman
TTITLE6=Curtis Mayfield - Kung Fu
TTITLE7=Aretha Franklin - Ain't Nothing Like The Real Thing
TTITLE8=Johnnie Taylor - I've Been Born Again
TTITLE9=Blue Magic - Sideshow
TTITLE10=Graham Central Station - Can You Handle It ?
TTITLE11=Inez Foxx - I Had A Talk With My Man
TTITLE12=Paul Kelly - Hooked, Hogtied and Collared
TTITLE13=Margie Joseph - My Love
TTITLE14=Blue Magic - Three Ring Circus
EXTD=
EXTT0=
EXTT1=
EXTT2=
EXTT3=
EXTT4=
EXTT5=
EXTT6=
EXTT7=
EXTT8=
EXTT9=
EXTT10=
EXTT11=
EXTT12=
EXTT13=
EXTT14=
PLAYORDER=
